<svg width="512" height="512" viewBox="0 0 512 512" fill="none" xmlns="http://www.w3.org/2000/svg">
<g clip-path="url(#clip0_27_36)">
<path d="M384.469 477H277V471C277 466.857 273.642 463.5 269.5 463.5H242.5C238.358 463.5 235 466.857 235 471V477H55V464.5C55 460.357 51.642 457 47.5 457H35V277H41C45.142 277 48.5 273.643 48.5 269.5V242.5C48.5 238.357 45.142 235 41 235H35V55H47.5C51.642 55 55 51.643 55 47.5V35H96.533C100.675 35 104.033 31.643 104.033 27.5C104.033 23.357 100.675 20 96.533 20H55V7.5C55 3.357 51.642 0 47.5 0H7.5C3.358 0 0 3.357 0 7.5V47.5C0 51.643 3.358 55 7.5 55H20V235H14C9.858 235 6.5 238.357 6.5 242.5V269.5C6.5 273.643 9.858 277 14 277H20V457H7.5C3.358 457 0 460.357 0 464.5V504.5C0 508.643 3.358 512 7.5 512H47.5C51.642 512 55 508.643 55 504.5V492H235V498C235 502.143 238.358 505.5 242.5 505.5H269.5C273.642 505.5 277 502.143 277 498V492H384.469C388.611 492 391.969 488.643 391.969 484.5C391.969 480.357 388.611 477 384.469 477ZM15 15H40V40H15V15ZM21.5 250H33.5V262H21.5V250ZM40 497H15V472H40V497ZM262 490.5H250V478.5H262V490.5Z" fill="#7F2B5E"/>
<path d="M504.5 55C508.642 55 512 51.643 512 47.5V7.5C512 3.357 508.642 0 504.5 0H464.5C460.358 0 457 3.357 457 7.5V20H277V14C277 9.857 273.642 6.5 269.5 6.5H242.5C238.358 6.5 235 9.857 235 14V20H132.594C128.452 20 125.094 23.357 125.094 27.5C125.094 31.643 128.452 35 132.594 35H235V41C235 45.143 238.358 48.5 242.5 48.5H269.5C273.642 48.5 277 45.143 277 41V35H457V47.5C457 51.643 460.358 55 464.5 55H477V235H471C466.858 235 463.5 238.357 463.5 242.5V269.5C463.5 273.643 466.858 277 471 277H477V457H464.5C460.358 457 457 460.357 457 464.5V477H419.526C415.384 477 412.026 480.357 412.026 484.5C412.026 488.643 415.384 492 419.526 492H457V504.5C457 508.643 460.358 512 464.5 512H504.5C508.642 512 512 508.643 512 504.5V464.5C512 460.357 508.642 457 504.5 457H492V277H498C502.142 277 505.5 273.643 505.5 269.5V242.5C505.5 238.357 502.142 235 498 235H492V55H504.5ZM262 33.5H250V21.5H262V33.5ZM497 497H472V472H497V497ZM490.5 262H478.5V250H490.5V262ZM472 15H497V40H472V15Z" fill="#7F2B5E"/>
<path d="M79.2869 426.196C81.6089 429.471 85.3899 431.427 89.4029 431.427H175.259C183.461 431.427 190.9 426.259 193.772 418.559L215.603 359.816H296.549L318.142 418.49C320.975 426.228 328.426 431.428 336.68 431.428H422.597C426.613 431.428 430.395 429.474 432.715 426.2C435.035 422.927 435.627 418.711 434.297 414.925L321.639 93.764C318.858 85.872 311.371 80.571 303.009 80.571C279.495 80.571 232.192 80.571 208.991 80.571C200.628 80.571 193.141 85.874 190.358 93.775L77.7039 414.923C76.3749 418.708 76.9669 422.923 79.2869 426.196ZM204.508 98.749C205.178 96.848 206.979 95.57 208.99 95.57H254.35C255.934 95.639 257.404 96.262 258.829 98.739L287.096 179.319C288.467 183.227 292.747 185.285 296.656 183.914C300.565 182.543 302.622 178.263 301.251 174.354L273.614 95.57H303.008C305.019 95.57 306.82 96.847 307.487 98.739L418.926 416.427H386.05C385.942 415.922 312.88 207.508 312.88 207.508C311.509 203.599 307.227 201.54 303.32 202.913C299.411 204.284 297.354 208.564 298.725 212.473L370.268 416.427H336.678C334.693 416.427 332.903 415.183 332.221 413.321L308.817 349.726C307.732 346.776 304.921 344.816 301.778 344.816H161.732C158.598 344.816 155.794 346.765 154.702 349.704L148.563 366.224C147.12 370.107 149.098 374.423 152.98 375.867C156.862 377.311 161.18 375.332 162.623 371.449L166.946 359.817H199.601L179.715 413.327C179.023 415.182 177.232 416.429 175.259 416.429H145.907L150.353 404.466C151.796 400.584 149.818 396.267 145.936 394.823C142.055 393.38 137.736 395.358 136.293 399.241L131.056 413.331C130.732 414.203 130.166 414.953 129.426 415.498C128.596 416.106 127.619 416.429 126.602 416.429H93.0719L204.508 98.749Z" fill="#7F2B5E"/>
<path d="M178.057 309.809H285.639C288.071 309.809 290.351 308.63 291.757 306.647C293.163 304.664 293.521 302.122 292.716 299.827L238.755 145.973C237.7 142.967 234.862 140.955 231.677 140.955C231.675 140.955 231.672 140.955 231.67 140.955C228.482 140.958 225.644 142.976 224.595 145.987L170.975 299.841C170.176 302.134 170.537 304.673 171.943 306.653C173.35 308.633 175.628 309.809 178.057 309.809ZM237.27 294.809L256.103 240.76L275.06 294.809H237.27ZM231.699 171.18L248.134 218.04L221.385 294.809H188.613L231.699 171.18Z" fill="#7F2B5E"/>
</g>
<defs>
<clipPath id="clip0_27_36">
<rect width="512" height="512" fill="white"/>
</clipPath>
</defs>
</svg>
