<svg width="512" height="512" viewBox="0 0 512 512" fill="none" xmlns="http://www.w3.org/2000/svg">
<g clip-path="url(#clip0_27_42)">
<path d="M162.133 187.733H349.867C354.579 187.733 358.4 183.913 358.4 179.2V8.53333C358.4 3.82083 354.579 -7.62939e-06 349.867 -7.62939e-06H298.667C293.954 -7.62939e-06 290.133 3.82083 290.133 8.53333V34.1333H162.133C157.421 34.1333 153.6 37.9542 153.6 42.6667V179.2C153.6 183.913 157.421 187.733 162.133 187.733ZM307.2 17.0667H341.333V34.1333H307.2V17.0667ZM170.667 51.2H341.333V170.667H170.667V51.2Z" fill="#7F2B5E"/>
<path d="M256 68.2667C232.438 68.2667 213.333 87.3708 213.333 110.933C213.333 134.496 232.438 153.6 256 153.6C279.563 153.6 298.667 134.496 298.667 110.933C298.638 87.3792 279.554 68.2958 256 68.2667ZM256 136.533C241.863 136.533 230.4 125.071 230.4 110.933C230.4 96.7958 241.863 85.3333 256 85.3333C270.138 85.3333 281.6 96.7958 281.6 110.933C281.583 125.067 270.133 136.517 256 136.533Z" fill="#7F2B5E"/>
<path d="M206.687 329.458C205.521 333.313 204.887 337.308 204.8 341.333C204.8 358.475 218.425 371.713 231.233 380.367C230.775 381.317 230.5 382.342 230.421 383.392L221.887 502.858C221.716 505.221 222.537 507.55 224.154 509.283C225.766 511.017 228.029 512 230.4 512H281.6C283.971 512 286.233 511.017 287.846 509.283C289.462 507.55 290.283 505.221 290.112 502.858L281.579 383.392C281.5 382.342 281.225 381.313 280.766 380.363C293.575 371.713 307.2 358.475 307.2 341.333C307.141 338.363 306.762 335.404 306.058 332.517C299.691 303.942 264.071 260.896 262.558 259.075C260.937 257.125 258.533 256 256 256C253.466 256 251.062 257.125 249.441 259.075C248.025 260.775 214.675 301.058 206.687 329.45V329.458ZM239.566 494.933L246.879 392.533H265.121L272.433 494.933H239.566ZM255.991 374.7C246.179 370.183 228.154 359.688 223.175 347.563L223.346 347.613C225 348.238 226.704 348.725 228.437 349.075C228.85 349.158 229.279 349.225 229.708 349.3C231.808 349.667 233.937 349.858 236.071 349.867C245.641 349.908 254.821 346.092 261.541 339.279C265.187 335.175 270.408 332.817 275.9 332.8C277.391 332.788 278.879 332.942 280.337 333.258C280.787 333.363 281.15 333.563 281.566 333.696C282.358 333.921 283.133 334.204 283.879 334.55C284.35 334.792 284.787 335.125 285.241 335.408C285.833 335.783 286.433 336.121 287.016 336.567C287.591 337 288.191 337.517 288.787 338.013C289.162 338.325 289.529 338.613 289.921 338.95C290.05 339.738 290.121 340.533 290.133 341.333C290.133 355.925 267.454 369.4 255.991 374.7ZM256.012 278.263C265.3 290.225 273.687 302.858 281.1 316.063C281.016 316.05 280.912 316.054 280.825 316.046C279.191 315.838 277.546 315.733 275.9 315.733C266.333 315.692 257.154 319.508 250.433 326.321C246.787 330.425 241.562 332.783 236.071 332.8C234.7 332.8 233.333 332.658 231.996 332.379C231.625 332.3 231.283 332.196 230.937 332.096C230.116 331.871 229.321 331.575 228.55 331.217C228.25 331.071 227.937 330.938 227.641 330.775C226.712 330.258 225.821 329.675 224.971 329.029L224.837 328.938L224.833 328.933C233.066 310.804 243.541 293.783 256.012 278.263Z" fill="#7F2B5E"/>
<path d="M64.4749 351.483C72.4624 357.737 82.9083 359.908 92.7249 357.35L117.208 351.012C128.683 347.937 136.633 337.492 136.533 325.612V162.133C136.533 159.504 135.321 157.025 133.25 155.408C131.179 153.792 128.479 153.217 125.929 153.854L91.7958 162.387C87.9958 163.337 85.3333 166.75 85.3333 170.667V288.633L76.4041 290.942C63.8624 294.479 54.3708 304.762 51.8541 317.55C49.3333 330.337 54.2124 343.454 64.4749 351.483ZM80.6791 307.467L96.0041 303.5C99.7708 302.525 102.4 299.129 102.4 295.237V177.329L119.467 173.062V325.612C119.562 329.712 116.879 333.362 112.933 334.487L88.4499 340.825C83.7458 342.037 78.7458 340.992 74.9249 337.992C70.6666 334.667 68.2083 329.542 68.2666 324.142C68.1208 316.404 73.2249 309.546 80.6791 307.467Z" fill="#7F2B5E"/>
<path d="M376.058 318.667C376.129 318.854 376.171 319.046 376.254 319.229C376.3 319.333 376.317 319.446 376.367 319.55L401.967 370.75C403.413 373.642 406.367 375.467 409.6 375.467C412.833 375.467 415.788 373.642 417.233 370.75L442.833 319.55C442.883 319.446 442.9 319.333 442.946 319.229C443.029 319.046 443.071 318.854 443.142 318.667C443.421 317.708 443.617 316.725 443.733 315.733V153.6C443.725 144.179 436.088 136.542 426.667 136.533H392.533C383.113 136.542 375.475 144.179 375.467 153.6V315.733C375.583 316.725 375.779 317.708 376.058 318.667ZM392.533 221.867H426.667V307.2H392.533V221.867ZM426.667 204.8H392.533V187.733H426.667V204.8ZM409.6 347.854L397.808 324.267H421.392L409.6 347.854ZM392.533 153.6H426.667V170.667H392.533V153.6Z" fill="#7F2B5E"/>
<path d="M247.467 204.8H264.533V238.933H247.467V204.8Z" fill="#7F2B5E"/>
<path d="M158.317 306.3L165.95 291.033L200.084 308.1L192.45 323.367L158.317 306.3Z" fill="#7F2B5E"/>
<path d="M311.917 308.1L346.05 291.033L353.683 306.3L319.55 323.367L311.917 308.1Z" fill="#7F2B5E"/>
<path d="M307.2 68.2667H324.267V85.3333H307.2V68.2667Z" fill="#7F2B5E"/>
<path d="M187.733 68.2667H204.8V153.6H187.733V68.2667Z" fill="#7F2B5E"/>
<path d="M59.7335 102.4C73.8669 102.417 85.3169 113.867 85.3335 128C85.3335 132.712 89.1544 136.533 93.8669 136.533C98.5794 136.533 102.4 132.712 102.4 128C102.417 113.867 113.867 102.417 128 102.4C132.713 102.4 136.534 98.5792 136.534 93.8667C136.534 89.1542 132.713 85.3333 128 85.3333C113.867 85.3167 102.417 73.8667 102.4 59.7333C102.4 55.0208 98.5794 51.2 93.8669 51.2C89.1544 51.2 85.3335 55.0208 85.3335 59.7333C85.3169 73.8667 73.8669 85.3167 59.7335 85.3333C55.021 85.3333 51.2002 89.1542 51.2002 93.8667C51.2002 98.5792 55.021 102.4 59.7335 102.4ZM93.8669 85.0708C96.3544 88.4125 99.321 91.3792 102.663 93.8667C99.321 96.3542 96.3544 99.3208 93.8669 102.662C91.3794 99.3208 88.4127 96.3542 85.071 93.8667C88.4127 91.3792 91.3794 88.4125 93.8669 85.0708Z" fill="#7F2B5E"/>
<path d="M384 51.2C398.133 51.2167 409.583 62.6667 409.6 76.8C409.6 81.5125 413.421 85.3333 418.133 85.3333C422.846 85.3333 426.667 81.5125 426.667 76.8C426.683 62.6667 438.133 51.2167 452.267 51.2C456.979 51.2 460.8 47.3792 460.8 42.6667C460.8 37.9542 456.979 34.1333 452.267 34.1333C438.133 34.1167 426.683 22.6667 426.667 8.53333C426.667 3.82083 422.846 -7.62939e-06 418.133 -7.62939e-06C413.421 -7.62939e-06 409.6 3.82083 409.6 8.53333C409.583 22.6667 398.133 34.1167 384 34.1333C379.288 34.1333 375.467 37.9542 375.467 42.6667C375.467 47.3792 379.288 51.2 384 51.2ZM418.133 33.8708C420.621 37.2125 423.588 40.1792 426.929 42.6667C423.588 45.1542 420.621 48.1208 418.133 51.4625C415.646 48.1208 412.679 45.1542 409.338 42.6667C412.679 40.1792 415.646 37.2125 418.133 33.8708Z" fill="#7F2B5E"/>
<path d="M119.467 418.133C119.467 422.846 123.288 426.667 128 426.667C142.133 426.683 153.583 438.133 153.6 452.267C153.6 456.979 157.421 460.8 162.133 460.8C166.846 460.8 170.667 456.979 170.667 452.267C170.683 438.133 182.133 426.683 196.267 426.667C200.979 426.667 204.8 422.846 204.8 418.133C204.8 413.421 200.979 409.6 196.267 409.6C182.133 409.583 170.683 398.133 170.667 384C170.667 379.288 166.846 375.467 162.133 375.467C157.421 375.467 153.6 379.288 153.6 384C153.583 398.133 142.133 409.583 128 409.6C123.288 409.6 119.467 413.421 119.467 418.133ZM162.133 409.338C164.621 412.679 167.588 415.646 170.929 418.133C167.588 420.621 164.621 423.588 162.133 426.929C159.646 423.588 156.679 420.621 153.338 418.133C156.679 415.646 159.646 412.679 162.133 409.338Z" fill="#7F2B5E"/>
</g>
<defs>
<clipPath id="clip0_27_42">
<rect width="512" height="512" fill="white"/>
</clipPath>
</defs>
</svg>
