<svg width="512" height="512" viewBox="0 0 512 512" fill="none" xmlns="http://www.w3.org/2000/svg">
<path d="M284.28 228.67C284.28 259.26 309.17 284.14 339.75 284.14C370.32 284.14 395.2 259.25 395.2 228.67C395.2 198.1 370.33 173.23 339.75 173.23C309.16 173.23 284.28 198.1 284.28 228.67ZM339.75 189.22C361.51 189.22 379.21 206.92 379.21 228.68C379.21 250.45 361.51 268.17 339.75 268.17C317.98 268.17 300.26 250.46 300.26 228.68C300.26 206.92 317.98 189.22 339.75 189.22ZM511.76 486.26L489.76 395.01C489.32 393.18 488.24 391.56 486.72 390.44C469.06 377.45 451.28 369.07 433.45 365.23L432.32 359.89C423.17 317.1 386.22 287.21 342.47 287.21H337C293.23 287.21 256.29 317.1 247.18 359.89L246.03 365.23C228.2 369.06 210.43 377.46 192.77 390.45C191.25 391.57 190.18 393.18 189.74 395.01L167.72 486.26C166.93 489.52 168.27 492.93 171.06 494.79C173.85 496.65 177.51 496.56 180.22 494.57C232.06 456.47 282.71 456.47 335.05 494.59C335.07 494.6 335.09 494.61 335.11 494.63C335.43 494.86 335.77 495.07 336.13 495.26C336.14 495.27 336.16 495.27 336.17 495.28C336.5 495.45 336.84 495.58 337.18 495.7C337.29 495.74 337.39 495.76 337.5 495.8C337.77 495.88 338.04 495.94 338.31 495.99C338.42 496.01 338.52 496.03 338.63 496.05C339 496.1 339.37 496.14 339.75 496.14C340.12 496.14 340.49 496.11 340.87 496.05C340.98 496.03 341.08 496.01 341.19 495.99C341.46 495.94 341.73 495.88 342 495.8C342.11 495.77 342.21 495.74 342.32 495.7C342.67 495.58 343.01 495.45 343.34 495.28C343.35 495.27 343.36 495.27 343.37 495.27H343.38C343.74 495.09 344.08 494.87 344.4 494.64C344.42 494.63 344.44 494.62 344.46 494.61C396.79 456.48 447.42 456.47 499.26 494.59C501.97 496.58 505.63 496.67 508.42 494.81C511.21 492.93 512.55 489.52 511.76 486.26ZM337 303.2H342.47C378.53 303.2 408.98 327.77 416.63 362.98C391.01 361.61 365.32 369.65 339.74 387.12C314.17 369.64 288.49 361.6 262.88 362.97C270.5 327.76 300.94 303.2 337 303.2ZM257.42 450.05C234.21 450.05 211.04 456.79 188.01 470.29L204.58 401.63C220.91 390.03 237.11 382.87 253.3 380.11C253.77 380.08 254.23 380 254.68 379.89C280.21 375.94 305.73 382.96 331.72 401.01L331.74 473.1C307.01 457.74 282.2 450.05 257.42 450.05ZM347.74 473.1V401C373.78 382.92 399.35 375.91 424.94 379.91C425.32 380 425.7 380.06 426.09 380.09C442.31 382.84 458.55 390 474.91 401.62L491.46 470.28C443.87 442.39 395.66 443.33 347.74 473.1ZM321.73 449.11C320.24 451.65 317.57 453.06 314.82 453.06C313.45 453.06 312.06 452.71 310.79 451.96C278.15 432.84 246.59 431.33 214.32 447.35C210.37 449.31 205.57 447.7 203.61 443.74C201.65 439.79 203.26 434.99 207.22 433.03C244.18 414.69 281.74 416.42 318.87 438.17C322.68 440.41 323.96 445.3 321.73 449.11ZM215.3 411.39C213.49 407.36 215.28 402.63 219.31 400.82C250.91 386.59 282.99 388.79 314.65 407.37C318.46 409.6 319.73 414.5 317.5 418.31C316.01 420.85 313.34 422.26 310.6 422.26C309.23 422.26 307.83 421.91 306.56 421.16C279.24 405.14 252.85 403.25 225.87 415.4C221.85 417.21 217.12 415.41 215.3 411.39ZM475.89 443.75C473.93 447.71 469.13 449.32 465.18 447.36C432.88 431.34 401.33 432.85 368.71 451.97C367.44 452.71 366.05 453.07 364.67 453.07C361.93 453.07 359.25 451.66 357.77 449.12C355.54 445.31 356.81 440.41 360.62 438.18C397.72 416.43 435.29 414.7 472.28 433.04C476.23 435 477.85 439.79 475.89 443.75ZM361.97 418.3C359.74 414.49 361.01 409.59 364.82 407.36C396.49 388.79 428.58 386.58 460.19 400.82C464.22 402.63 466.01 407.37 464.2 411.39C462.39 415.41 457.66 417.21 453.63 415.4C426.64 403.25 400.24 405.13 372.91 421.16C371.64 421.91 370.25 422.26 368.87 422.26C366.13 422.25 363.45 420.84 361.97 418.3ZM188.36 305.05C194.96 302.3 199.61 295.78 199.61 288.2V263.23C199.61 249.24 204.32 237.53 214.02 227.44C229.28 211.56 237.68 190.67 237.68 168.61C237.68 121.77 199.58 83.66 152.75 83.66C105.91 83.66 67.79 121.77 67.79 168.61C67.79 190.64 76.19 211.53 91.45 227.44C101.15 237.53 105.86 249.24 105.86 263.23V288.2C105.86 295.96 110.74 302.59 117.58 305.23C121.24 318.92 133.75 328.91 148.43 328.91H157.44C172.19 328.91 184.76 318.83 188.36 305.05ZM124.12 290.47C122.87 290.47 121.85 289.45 121.85 288.2V269.18H183.62V288.2C183.62 289.45 182.6 290.47 181.35 290.47H124.12ZM132.45 191.43H130.47C129.39 191.43 128.49 190.52 128.49 189.45C128.49 188.37 129.4 187.47 130.47 187.47C131.54 187.47 132.45 188.38 132.45 189.45V191.43ZM148.44 207.41H155.84C156.25 207.41 156.64 207.37 157.03 207.31V253.19H148.44V207.41ZM83.78 168.61C83.78 130.58 114.72 99.64 152.75 99.64C190.76 99.64 221.69 130.58 221.69 168.61C221.69 186.52 214.87 203.48 202.49 216.36C192.35 226.92 186.26 239.27 184.31 253.19H173.02V207.41H175C184.92 207.41 193 199.35 193 189.44C193 179.53 184.92 171.47 175 171.47C165.09 171.47 157.03 179.53 157.03 189.44V191.52C156.64 191.46 156.25 191.42 155.84 191.42H148.44V189.44C148.44 179.53 140.38 171.47 130.47 171.47C120.56 171.47 112.5 179.53 112.5 189.44C112.5 199.35 120.56 207.41 130.47 207.41H132.45V253.19H121.16C119.21 239.27 113.12 226.92 102.98 216.36C90.6 203.45 83.78 186.49 83.78 168.61ZM173.02 191.43V189.45C173.02 188.37 173.93 187.47 175 187.47C176.09 187.47 177.01 188.38 177.01 189.45C177.01 190.53 176.09 191.43 175 191.43H173.02ZM157.45 312.92H148.44C143.22 312.92 138.54 310.38 135.62 306.46H170.26C167.35 310.38 162.68 312.92 157.45 312.92ZM226.87 94.5C223.75 91.38 223.74 86.32 226.86 83.2L249.42 60.61C252.54 57.49 257.6 57.48 260.72 60.6C263.84 63.72 263.85 68.78 260.73 71.9L238.17 94.49C236.61 96.05 234.56 96.83 232.51 96.83C230.47 96.83 228.43 96.06 226.87 94.5ZM144.75 55.79V23.87C144.75 19.45 148.33 15.88 152.74 15.88C157.15 15.88 160.73 19.46 160.73 23.87V55.79C160.73 60.21 157.15 63.78 152.74 63.78C148.33 63.78 144.75 60.2 144.75 55.79ZM265.57 160.61H297.49C301.91 160.61 305.48 164.19 305.48 168.6C305.48 173.01 301.9 176.59 297.49 176.59H265.57C261.15 176.59 257.58 173.01 257.58 168.6C257.58 164.19 261.15 160.61 265.57 160.61ZM238.26 242.81L260.74 265.32C263.86 268.44 263.86 273.51 260.73 276.62C259.17 278.18 257.12 278.96 255.08 278.96C253.03 278.96 250.99 278.18 249.42 276.62L226.94 254.11C223.82 250.99 223.82 245.92 226.95 242.81C230.07 239.68 235.14 239.69 238.26 242.81ZM44.73 71.9C41.61 68.78 41.61 63.71 44.74 60.6C47.86 57.48 52.93 57.48 56.05 60.61L78.61 83.2C81.73 86.32 81.73 91.39 78.6 94.5C77.04 96.06 74.99 96.84 72.95 96.84C70.9 96.84 68.86 96.06 67.29 94.5L44.73 71.9ZM39.9 176.6H8.01002C3.59002 176.6 0.0200195 173.02 0.0200195 168.61C0.0200195 164.2 3.60002 160.62 8.01002 160.62H39.9C44.32 160.62 47.89 164.2 47.89 168.61C47.89 173.02 44.32 176.6 39.9 176.6ZM78.55 242.81C81.67 245.93 81.67 250.99 78.55 254.11L56.04 276.62C54.48 278.18 52.43 278.96 50.39 278.96C48.35 278.96 46.3 278.18 44.74 276.62C41.62 273.5 41.62 268.44 44.74 265.32L67.25 242.81C70.37 239.69 75.43 239.69 78.55 242.81Z" fill="#7F2B5E"/>
</svg>
